STARTFONT 2.1
FONT -FontForge-Butcherman-Book-R-Normal--12-120-72-72-P-65-ISO10646-1
SIZE 12 72 72
FONTBOUNDINGBOX 18 23 -1 -8
COMMENT "Generated by fontforge, http://fontforge.sourceforge.net"
COMMENT "Copyright (c) 2011, Typomondo, with Reserved Font Name  "Butcherman"."
STARTPROPERTIES 40
FOUNDRY "FontForge"
FAMILY_NAME "Butcherman"
WEIGHT_NAME "Book"
SLANT "R"
SETWIDTH_NAME "Normal"
ADD_STYLE_NAME ""
PIXEL_SIZE 12
POINT_SIZE 120
RESOLUTION_X 72
RESOLUTION_Y 72
SPACING "P"
AVERAGE_WIDTH 65
CHARSET_REGISTRY "ISO10646"
CHARSET_ENCODING "1"
FONTNAME_REGISTRY ""
CHARSET_COLLECTIONS "ISO8859-2 ISO8859-9 ISO8859-4 ISO10646-1"
FONT_NAME "Butcherman-Regular"
FACE_NAME "Butcherman Regular"
COPYRIGHT "Copyright (c) 2011, Typomondo, with Reserved Font Name  "Butcherman"."
FONT_VERSION "001.004"
FONT_ASCENT 10
FONT_DESCENT 2
UNDERLINE_POSITION -1
UNDERLINE_THICKNESS 1
X_HEIGHT 8
CAP_HEIGHT 8
DEFAULT_CHAR 3
RAW_ASCENT 799
RAW_DESCENT 200
NORM_SPACE 2
RELATIVE_WEIGHT 40
RELATIVE_SETWIDTH 50
SUPERSCRIPT_X 0
SUPERSCRIPT_Y 4
SUPERSCRIPT_SIZE 7
SUBSCRIPT_X 0
SUBSCRIPT_Y 0
SUBSCRIPT_SIZE 7
AVG_LOWERCASE_WIDTH 70
AVG_UPPERCASE_WIDTH 66
ENDPROPERTIES
CHARS 331
STARTCHAR NULL.dup1
ENCODING 0
SWIDTH 161 0
DWIDTH 2 0
BBX 1 1 0 0
BITMAP
00
ENDCHAR
STARTCHAR CR
ENCODING 13
SWIDTH 161 0
DWIDTH 2 0
BBX 1 1 0 0
BITMAP
00
ENDCHAR
STARTCHAR space
ENCODING 32
SWIDTH 161 0
DWIDTH 2 0
BBX 1 1 0 0
BITMAP
00
ENDCHAR
STARTCHAR exclam
ENCODING 33
SWIDTH 350 0
DWIDTH 4 0
BBX 4 15 0 0
BITMAP
60
F0
60
60
60
60
60
60
60
20
00
F0
70
70
80
ENDCHAR
STARTCHAR quotedbl
ENCODING 34
SWIDTH 541 0
DWIDTH 7 0
BBX 5 5 1 4
BITMAP
D8
D8
D8
D0
90
ENDCHAR
STARTCHAR numbersign
ENCODING 35
SWIDTH 583 0
DWIDTH 7 0
BBX 7 10 0 -1
BITMAP
16
24
7E
7C
28
48
FC
F8
50
90
ENDCHAR
STARTCHAR dollar
ENCODING 36
SWIDTH 534 0
DWIDTH 6 0
BBX 6 15 0 -3
BITMAP
10
10
10
38
7C
7C
FC
6C
78
38
68
78
10
10
10
ENDCHAR
STARTCHAR percent
ENCODING 37
SWIDTH 828 0
DWIDTH 10 0
BBX 10 10 0 -1
BITMAP
6200
F400
F400
A580
6580
2980
09C0
0980
1000
1000
ENDCHAR
STARTCHAR ampersand
ENCODING 38
SWIDTH 522 0
DWIDTH 6 0
BBX 6 6 0 2
BITMAP
30
30
FC
FC
7C
30
ENDCHAR
STARTCHAR quotesingle
ENCODING 39
SWIDTH 300 0
DWIDTH 4 0
BBX 3 5 0 4
BITMAP
E0
60
60
60
40
ENDCHAR
STARTCHAR parenleft
ENCODING 40
SWIDTH 372 0
DWIDTH 4 0
BBX 4 11 0 -1
BITMAP
30
30
70
70
60
E0
E0
60
60
70
30
ENDCHAR
STARTCHAR parenright
ENCODING 41
SWIDTH 338 0
DWIDTH 4 0
BBX 3 12 0 -2
BITMAP
C0
E0
60
60
20
20
20
20
20
60
C0
80
ENDCHAR
STARTCHAR asterisk
ENCODING 42
SWIDTH 513 0
DWIDTH 6 0
BBX 6 7 0 3
BITMAP
10
68
30
F8
FC
30
78
ENDCHAR
STARTCHAR plus
ENCODING 43
SWIDTH 458 0
DWIDTH 6 0
BBX 4 5 1 2
BITMAP
60
60
F0
60
60
ENDCHAR
STARTCHAR comma
ENCODING 44
SWIDTH 361 0
DWIDTH 4 0
BBX 3 6 1 -2
BITMAP
E0
E0
E0
60
60
40
ENDCHAR
STARTCHAR hyphen
ENCODING 45
SWIDTH 478 0
DWIDTH 6 0
BBX 4 3 1 3
BITMAP
F0
F0
50
ENDCHAR
STARTCHAR period
ENCODING 46
SWIDTH 374 0
DWIDTH 5 0
BBX 4 4 0 0
BITMAP
F0
70
70
80
ENDCHAR
STARTCHAR slash
ENCODING 47
SWIDTH 291 0
DWIDTH 4 0
BBX 4 10 0 -1
BITMAP
30
20
20
20
40
40
40
80
80
80
ENDCHAR
STARTCHAR zero
ENCODING 48
SWIDTH 528 0
DWIDTH 6 0
BBX 5 10 1 -1
BITMAP
60
F0
F8
F8
F8
98
B8
F0
F0
20
ENDCHAR
STARTCHAR one
ENCODING 49
SWIDTH 366 0
DWIDTH 4 0
BBX 4 9 0 0
BITMAP
30
F0
70
70
60
30
20
20
30
ENDCHAR
STARTCHAR two
ENCODING 50
SWIDTH 575 0
DWIDTH 7 0
BBX 7 10 0 -1
BITMAP
38
7C
7C
7C
6C
1C
18
3E
7C
DC
ENDCHAR
STARTCHAR three
ENCODING 51
SWIDTH 517 0
DWIDTH 6 0
BBX 6 10 0 -1
BITMAP
70
F8
7C
7C
7C
38
18
6C
38
38
ENDCHAR
STARTCHAR four
ENCODING 52
SWIDTH 466 0
DWIDTH 6 0
BBX 5 12 0 -3
BITMAP
78
70
70
60
60
78
78
78
F8
18
10
10
ENDCHAR
STARTCHAR five
ENCODING 53
SWIDTH 583 0
DWIDTH 7 0
BBX 7 10 0 -1
BITMAP
7E
7E
7C
7C
E4
78
38
68
38
38
ENDCHAR
STARTCHAR six
ENCODING 54
SWIDTH 582 0
DWIDTH 7 0
BBX 7 10 0 -1
BITMAP
38
7C
FE
7C
6C
64
7C
6C
3C
3C
ENDCHAR
STARTCHAR seven
ENCODING 55
SWIDTH 624 0
DWIDTH 7 0
BBX 7 10 0 -1
BITMAP
FE
FE
7E
7C
4C
0C
08
18
10
30
ENDCHAR
STARTCHAR eight
ENCODING 56
SWIDTH 459 0
DWIDTH 6 0
BBX 5 10 0 -1
BITMAP
78
F8
78
78
58
70
70
50
70
20
ENDCHAR
STARTCHAR nine
ENCODING 57
SWIDTH 584 0
DWIDTH 7 0
BBX 7 11 0 -2
BITMAP
38
7C
7C
FC
6E
7C
2C
6C
78
28
10
ENDCHAR
STARTCHAR colon
ENCODING 58
SWIDTH 386 0
DWIDTH 5 0
BBX 4 10 0 0
BITMAP
F0
70
70
40
00
00
F0
70
70
80
ENDCHAR
STARTCHAR semicolon
ENCODING 59
SWIDTH 375 0
DWIDTH 5 0
BBX 4 12 0 -2
BITMAP
F0
70
70
40
00
00
70
70
70
30
30
20
ENDCHAR
STARTCHAR less
ENCODING 60
SWIDTH 459 0
DWIDTH 6 0
BBX 5 6 0 1
BITMAP
38
70
E0
60
70
38
ENDCHAR
STARTCHAR equal
ENCODING 61
SWIDTH 485 0
DWIDTH 6 0
BBX 4 4 1 3
BITMAP
F0
00
F0
50
ENDCHAR
STARTCHAR greater
ENCODING 62
SWIDTH 432 0
DWIDTH 5 0
BBX 5 7 0 1
BITMAP
A0
60
30
38
38
70
E0
ENDCHAR
STARTCHAR question
ENCODING 63
SWIDTH 577 0
DWIDTH 7 0
BBX 5 10 1 -1
BITMAP
F0
F8
F8
D8
38
30
20
00
60
60
ENDCHAR
STARTCHAR at
ENCODING 64
SWIDTH 930 0
DWIDTH 11 0
BBX 11 13 0 -3
BITMAP
1F00
3180
6EC0
5F40
5F60
DA60
5660
5B60
5F40
4EC0
2000
3E00
0F00
ENDCHAR
STARTCHAR A
ENCODING 65
SWIDTH 494 0
DWIDTH 6 0
BBX 6 12 0 -3
BITMAP
FC
78
78
78
70
70
70
70
70
50
50
10
ENDCHAR
STARTCHAR B
ENCODING 66
SWIDTH 517 0
DWIDTH 6 0
BBX 6 10 0 -1
BITMAP
F8
7C
7C
7C
68
78
38
68
38
28
ENDCHAR
STARTCHAR C
ENCODING 67
SWIDTH 504 0
DWIDTH 6 0
BBX 6 10 0 -1
BITMAP
38
7C
FC
FC
6C
60
60
78
78
30
ENDCHAR
STARTCHAR D
ENCODING 68
SWIDTH 522 0
DWIDTH 6 0
BBX 6 11 0 -2
BITMAP
38
FC
7C
7C
6C
6C
68
28
38
50
10
ENDCHAR
STARTCHAR E
ENCODING 69
SWIDTH 570 0
DWIDTH 7 0
BBX 7 10 0 -1
BITMAP
FE
7C
7C
78
60
78
78
30
38
58
ENDCHAR
STARTCHAR F
ENCODING 70
SWIDTH 559 0
DWIDTH 7 0
BBX 6 10 0 -1
BITMAP
FC
7C
7C
78
24
38
38
30
30
50
ENDCHAR
STARTCHAR G
ENCODING 71
SWIDTH 499 0
DWIDTH 6 0
BBX 6 10 0 -1
BITMAP
30
78
FC
FC
58
44
78
68
78
30
ENDCHAR
STARTCHAR H
ENCODING 72
SWIDTH 726 0
DWIDTH 9 0
BBX 9 11 0 -2
BITMAP
B780
7700
7600
7600
3600
3E00
3600
3400
3C00
2400
0800
ENDCHAR
STARTCHAR I
ENCODING 73
SWIDTH 401 0
DWIDTH 5 0
BBX 5 10 0 -1
BITMAP
F8
70
70
70
60
70
20
30
20
30
ENDCHAR
STARTCHAR J
ENCODING 74
SWIDTH 455 0
DWIDTH 5 0
BBX 5 10 0 -1
BITMAP
38
38
30
30
30
30
B0
B0
E0
40
ENDCHAR
STARTCHAR K
ENCODING 75
SWIDTH 580 0
DWIDTH 7 0
BBX 7 10 0 -1
BITMAP
EE
6C
68
38
38
38
38
28
28
34
ENDCHAR
STARTCHAR L
ENCODING 76
SWIDTH 416 0
DWIDTH 5 0
BBX 5 10 0 -1
BITMAP
F0
60
60
60
60
60
60
78
38
28
ENDCHAR
STARTCHAR M
ENCODING 77
SWIDTH 740 0
DWIDTH 9 0
BBX 9 10 0 -1
BITMAP
F780
7700
7F00
7E00
7E00
3E00
2A00
3A00
3E00
2200
ENDCHAR
STARTCHAR N
ENCODING 78
SWIDTH 610 0
DWIDTH 7 0
BBX 7 11 0 -2
BITMAP
EE
7C
7C
7C
7C
7C
3C
2C
28
28
28
ENDCHAR
STARTCHAR O
ENCODING 79
SWIDTH 504 0
DWIDTH 6 0
BBX 6 10 0 -1
BITMAP
30
7C
FC
FC
7C
4C
68
78
78
38
ENDCHAR
STARTCHAR P
ENCODING 80
SWIDTH 545 0
DWIDTH 7 0
BBX 6 10 0 -1
BITMAP
FC
7C
7C
7C
34
34
3C
30
30
30
ENDCHAR
STARTCHAR Q
ENCODING 81
SWIDTH 520 0
DWIDTH 6 0
BBX 6 11 0 -2
BITMAP
30
7C
FC
FC
EC
6C
6C
6C
3C
1C
04
ENDCHAR
STARTCHAR R
ENCODING 82
SWIDTH 599 0
DWIDTH 7 0
BBX 7 10 0 -1
BITMAP
FC
7E
3E
3E
36
3C
3C
3C
3C
34
ENDCHAR
STARTCHAR S
ENCODING 83
SWIDTH 504 0
DWIDTH 6 0
BBX 6 10 0 -1
BITMAP
38
7C
FC
FC
FC
70
38
68
78
30
ENDCHAR
STARTCHAR T
ENCODING 84
SWIDTH 622 0
DWIDTH 7 0
BBX 7 10 0 -1
BITMAP
FC
7E
7E
7C
5A
18
18
18
18
18
ENDCHAR
STARTCHAR U
ENCODING 85
SWIDTH 637 0
DWIDTH 8 0
BBX 8 10 0 -1
BITMAP
FF
6E
6E
6C
6C
6C
6C
3C
28
28
ENDCHAR
STARTCHAR V
ENCODING 86
SWIDTH 570 0
DWIDTH 7 0
BBX 7 10 0 -1
BITMAP
EE
6C
6C
68
78
78
38
38
30
30
ENDCHAR
STARTCHAR W
ENCODING 87
SWIDTH 777 0
DWIDTH 9 0
BBX 9 9 0 0
BITMAP
2B80
EF00
2F00
3E00
3E00
1E00
1E00
1400
1400
ENDCHAR
STARTCHAR X
ENCODING 88
SWIDTH 587 0
DWIDTH 7 0
BBX 7 10 0 -1
BITMAP
FE
6C
38
38
38
18
18
38
28
24
ENDCHAR
STARTCHAR Y
ENCODING 89
SWIDTH 688 0
DWIDTH 8 0
BBX 9 10 0 -1
BITMAP
F680
3700
1E00
1C00
0C00
0C00
0C00
0C00
0C00
0800
ENDCHAR
STARTCHAR Z
ENCODING 90
SWIDTH 695 0
DWIDTH 8 0
BBX 8 9 0 0
BITMAP
FE
7F
7E
3E
4C
18
10
3C
3C
ENDCHAR
STARTCHAR bracketleft
ENCODING 91
SWIDTH 410 0
DWIDTH 5 0
BBX 4 10 1 0
BITMAP
F0
F0
C0
C0
C0
C0
C0
C0
C0
F0
ENDCHAR
STARTCHAR backslash
ENCODING 92
SWIDTH 292 0
DWIDTH 4 0
BBX 4 10 0 -1
BITMAP
80
C0
40
40
40
20
20
20
20
10
ENDCHAR
STARTCHAR bracketright
ENCODING 93
SWIDTH 407 0
DWIDTH 5 0
BBX 4 10 0 0
BITMAP
F0
F0
30
30
30
30
30
30
30
F0
ENDCHAR
STARTCHAR asciicircum
ENCODING 94
SWIDTH 523 0
DWIDTH 6 0
BBX 6 5 0 8
BITMAP
30
78
78
CC
48
ENDCHAR
STARTCHAR underscore
ENCODING 95
SWIDTH 452 0
DWIDTH 5 0
BBX 4 2 1 0
BITMAP
B0
F0
ENDCHAR
STARTCHAR grave
ENCODING 96
SWIDTH 444 0
DWIDTH 5 0
BBX 4 3 1 9
BITMAP
C0
E0
30
ENDCHAR
STARTCHAR a
ENCODING 97
SWIDTH 479 0
DWIDTH 6 0
BBX 6 10 0 -1
BITMAP
FC
78
78
78
78
78
78
78
78
58
ENDCHAR
STARTCHAR b
ENCODING 98
SWIDTH 610 0
DWIDTH 7 0
BBX 7 10 0 -1
BITMAP
FC
7E
7E
3E
36
3C
3C
34
34
3C
ENDCHAR
STARTCHAR c
ENCODING 99
SWIDTH 534 0
DWIDTH 6 0
BBX 6 10 0 -1
BITMAP
38
7C
FC
FC
6C
64
60
6C
38
10
ENDCHAR
STARTCHAR d
ENCODING 100
SWIDTH 573 0
DWIDTH 7 0
BBX 7 10 0 -1
BITMAP
F8
7C
7E
7E
3E
34
34
3C
3C
28
ENDCHAR
STARTCHAR e
ENCODING 101
SWIDTH 632 0
DWIDTH 8 0
BBX 7 10 0 -1
BITMAP
FE
7E
7C
7C
74
38
38
30
3C
34
ENDCHAR
STARTCHAR f
ENCODING 102
SWIDTH 559 0
DWIDTH 7 0
BBX 6 10 0 -1
BITMAP
FC
7C
7C
78
24
38
38
30
30
70
ENDCHAR
STARTCHAR g
ENCODING 103
SWIDTH 546 0
DWIDTH 7 0
BBX 6 10 0 -1
BITMAP
78
FC
FC
FC
6C
6C
7C
6C
7C
38
ENDCHAR
STARTCHAR h
ENCODING 104
SWIDTH 730 0
DWIDTH 9 0
BBX 9 10 0 -1
BITMAP
F780
7700
7600
7600
3600
3E00
3600
3600
3C00
0400
ENDCHAR
STARTCHAR i
ENCODING 105
SWIDTH 412 0
DWIDTH 5 0
BBX 5 9 0 0
BITMAP
F8
70
70
70
70
30
30
20
20
ENDCHAR
STARTCHAR j
ENCODING 106
SWIDTH 458 0
DWIDTH 6 0
BBX 5 10 0 -1
BITMAP
78
38
30
30
30
30
B0
F0
F0
10
ENDCHAR
STARTCHAR k
ENCODING 107
SWIDTH 636 0
DWIDTH 8 0
BBX 8 10 0 -1
BITMAP
FF
7C
7C
38
38
38
38
3C
34
04
ENDCHAR
STARTCHAR l
ENCODING 108
SWIDTH 438 0
DWIDTH 5 0
BBX 6 10 0 -1
BITMAP
F8
70
70
70
30
30
20
3C
38
28
ENDCHAR
STARTCHAR m
ENCODING 109
SWIDTH 770 0
DWIDTH 9 0
BBX 9 10 0 -1
BITMAP
3780
F700
7700
7E00
7E00
7E00
2E00
2E00
2C00
2200
ENDCHAR
STARTCHAR n
ENCODING 110
SWIDTH 664 0
DWIDTH 8 0
BBX 8 10 0 -1
BITMAP
F7
76
76
7E
7E
7C
7C
2C
2C
28
ENDCHAR
STARTCHAR o
ENCODING 111
SWIDTH 545 0
DWIDTH 7 0
BBX 6 10 0 -1
BITMAP
38
7C
FC
FC
6C
6C
6C
68
7C
18
ENDCHAR
STARTCHAR p
ENCODING 112
SWIDTH 557 0
DWIDTH 7 0
BBX 6 10 0 -1
BITMAP
FC
7C
7C
7C
74
3C
3C
30
30
30
ENDCHAR
STARTCHAR q
ENCODING 113
SWIDTH 562 0
DWIDTH 7 0
BBX 7 11 0 -2
BITMAP
38
7C
FC
FE
6C
64
6C
7C
3E
04
04
ENDCHAR
STARTCHAR r
ENCODING 114
SWIDTH 616 0
DWIDTH 7 0
BBX 7 10 0 -1
BITMAP
FC
7E
3E
3E
36
3E
3C
3C
3C
34
ENDCHAR
STARTCHAR s
ENCODING 115
SWIDTH 481 0
DWIDTH 6 0
BBX 6 10 0 -1
BITMAP
30
7C
F8
F8
F8
70
38
78
70
30
ENDCHAR
STARTCHAR t
ENCODING 116
SWIDTH 683 0
DWIDTH 8 0
BBX 8 11 0 -2
BITMAP
FF
7E
7E
7E
5A
18
18
08
08
08
04
ENDCHAR
STARTCHAR u
ENCODING 117
SWIDTH 708 0
DWIDTH 9 0
BBX 9 9 0 0
BITMAP
F600
7780
7700
7600
3600
3600
3600
3E00
3C00
ENDCHAR
STARTCHAR v
ENCODING 118
SWIDTH 644 0
DWIDTH 8 0
BBX 8 10 0 -1
BITMAP
F7
7E
3C
3C
3C
3C
1C
18
18
10
ENDCHAR
STARTCHAR w
ENCODING 119
SWIDTH 704 0
DWIDTH 8 0
BBX 9 9 0 0
BITMAP
EA80
6B00
2A00
3E00
3E00
3C00
1400
1400
1400
ENDCHAR
STARTCHAR x
ENCODING 120
SWIDTH 599 0
DWIDTH 7 0
BBX 7 10 0 -1
BITMAP
FE
2C
38
38
38
18
18
38
28
24
ENDCHAR
STARTCHAR y
ENCODING 121
SWIDTH 604 0
DWIDTH 7 0
BBX 7 10 0 -1
BITMAP
EE
2C
38
18
18
18
18
18
18
18
ENDCHAR
STARTCHAR z
ENCODING 122
SWIDTH 622 0
DWIDTH 7 0
BBX 7 10 0 -1
BITMAP
FE
7E
7C
3C
58
18
10
1C
38
24
ENDCHAR
STARTCHAR braceleft
ENCODING 123
SWIDTH 372 0
DWIDTH 4 0
BBX 4 11 0 -1
BITMAP
30
30
70
70
60
E0
E0
60
60
70
30
ENDCHAR
STARTCHAR bar
ENCODING 124
SWIDTH 208 0
DWIDTH 3 0
BBX 1 11 1 -1
BITMAP
80
80
80
80
80
80
80
80
80
80
80
ENDCHAR
STARTCHAR braceright
ENCODING 125
SWIDTH 338 0
DWIDTH 4 0
BBX 3 12 0 -2
BITMAP
C0
E0
60
60
20
20
20
20
20
60
C0
80
ENDCHAR
STARTCHAR asciitilde
ENCODING 126
SWIDTH 535 0
DWIDTH 6 0
BBX 6 2 0 7
BITMAP
DC
7C
ENDCHAR
STARTCHAR exclamdown
ENCODING 161
SWIDTH 347 0
DWIDTH 4 0
BBX 4 15 0 0
BITMAP
70
70
70
F0
00
60
60
60
60
60
60
60
70
F0
40
ENDCHAR
STARTCHAR cent
ENCODING 162
SWIDTH 552 0
DWIDTH 7 0
BBX 6 18 0 -5
BITMAP
10
10
10
10
38
7C
FC
FC
6C
64
60
6C
38
10
10
10
10
10
ENDCHAR
STARTCHAR sterling
ENCODING 163
SWIDTH 589 0
DWIDTH 7 0
BBX 6 10 1 -1
BITMAP
70
F8
FC
FC
D8
D8
E0
F8
F0
70
ENDCHAR
STARTCHAR yen
ENCODING 165
SWIDTH 692 0
DWIDTH 8 0
BBX 8 9 0 1
BITMAP
E7
3E
1C
1F
7C
7F
0C
0C
0C
ENDCHAR
STARTCHAR brokenbar
ENCODING 166
SWIDTH 201 0
DWIDTH 2 0
BBX 1 11 1 -1
BITMAP
80
80
80
80
00
00
00
80
80
80
80
ENDCHAR
STARTCHAR section
ENCODING 167
SWIDTH 477 0
DWIDTH 6 0
BBX 6 11 0 -2
BITMAP
38
7C
78
78
70
78
D8
F0
70
50
70
ENDCHAR
STARTCHAR dieresis
ENCODING 168
SWIDTH 633 0
DWIDTH 8 0
BBX 6 3 1 10
BITMAP
08
DC
DC
ENDCHAR
STARTCHAR copyright
ENCODING 169
SWIDTH 783 0
DWIDTH 9 0
BBX 9 10 0 -1
BITMAP
3E00
4D00
5E80
9E80
9680
9080
5480
5D00
2D00
1E00
ENDCHAR
STARTCHAR guillemotleft
ENCODING 171
SWIDTH 759 0
DWIDTH 9 0
BBX 9 6 0 1
BITMAP
3B80
7600
EE00
6600
7600
3B80
ENDCHAR
STARTCHAR uni00AD
ENCODING 173
SWIDTH 446 0
DWIDTH 5 0
BBX 4 2 1 3
BITMAP
F0
D0
ENDCHAR
STARTCHAR registered
ENCODING 174
SWIDTH 780 0
DWIDTH 9 0
BBX 9 10 0 -1
BITMAP
3E00
7D00
5E80
9E80
9680
9C80
4C80
4E80
3300
1C00
ENDCHAR
STARTCHAR macron
ENCODING 175
SWIDTH 446 0
DWIDTH 5 0
BBX 4 2 1 3
BITMAP
F0
D0
ENDCHAR
STARTCHAR acute
ENCODING 180
SWIDTH 439 0
DWIDTH 5 0
BBX 4 3 1 9
BITMAP
20
F0
80
ENDCHAR
STARTCHAR mu
ENCODING 181
SWIDTH 679 0
DWIDTH 8 0
BBX 8 9 0 0
BITMAP
F6
77
76
76
76
76
36
3C
3C
ENDCHAR
STARTCHAR paragraph
ENCODING 182
SWIDTH 591 0
DWIDTH 7 0
BBX 7 10 0 -1
BITMAP
7E
FC
F4
74
74
74
14
14
14
14
ENDCHAR
STARTCHAR periodcentered
ENCODING 183
SWIDTH 388 0
DWIDTH 5 0
BBX 4 3 0 3
BITMAP
F0
70
70
ENDCHAR
STARTCHAR cedilla
ENCODING 184
SWIDTH 270 0
DWIDTH 3 0
BBX 2 4 1 -4
BITMAP
80
80
40
C0
ENDCHAR
STARTCHAR guillemotright
ENCODING 187
SWIDTH 767 0
DWIDTH 9 0
BBX 9 7 0 1
BITMAP
A800
6600
3300
3B80
3B80
7300
EE00
ENDCHAR
STARTCHAR Agrave
ENCODING 192
SWIDTH 494 0
DWIDTH 6 0
BBX 7 15 -1 -3
BITMAP
40
F0
10
7E
3C
3C
3C
38
38
38
38
38
28
28
08
ENDCHAR
STARTCHAR Aacute
ENCODING 193
SWIDTH 494 0
DWIDTH 6 0
BBX 7 15 0 -3
BITMAP
04
0E
18
FC
78
78
78
70
70
70
70
70
50
50
10
ENDCHAR
STARTCHAR Acircumflex
ENCODING 194
SWIDTH 494 0
DWIDTH 6 0
BBX 6 17 0 -3
BITMAP
30
70
78
CC
88
FC
78
78
78
70
70
70
70
70
50
50
10
ENDCHAR
STARTCHAR Atilde
ENCODING 195
SWIDTH 494 0
DWIDTH 6 0
BBX 6 16 0 -3
BITMAP
58
FC
68
00
FC
78
78
78
70
70
70
70
70
50
50
10
ENDCHAR
STARTCHAR Adieresis
ENCODING 196
SWIDTH 494 0
DWIDTH 6 0
BBX 6 16 0 -3
BITMAP
08
DC
DC
00
FC
78
78
78
70
70
70
70
70
50
50
10
ENDCHAR
STARTCHAR Aring
ENCODING 197
SWIDTH 494 0
DWIDTH 6 0
BBX 6 16 0 -3
BITMAP
30
48
30
10
FC
78
78
78
70
70
70
70
70
50
50
10
ENDCHAR
STARTCHAR AE
ENCODING 198
SWIDTH 733 0
DWIDTH 9 0
BBX 8 12 0 -3
BITMAP
FF
7F
7F
7E
78
7E
5E
7C
7E
5A
5A
10
ENDCHAR
STARTCHAR Ccedilla
ENCODING 199
SWIDTH 504 0
DWIDTH 6 0
BBX 6 14 0 -5
BITMAP
38
7C
FC
FC
6C
60
60
78
78
30
08
18
04
18
ENDCHAR
STARTCHAR Egrave
ENCODING 200
SWIDTH 570 0
DWIDTH 7 0
BBX 7 13 0 -1
BITMAP
40
E0
10
FE
7C
7C
78
60
78
78
30
38
58
ENDCHAR
STARTCHAR Eacute
ENCODING 201
SWIDTH 570 0
DWIDTH 7 0
BBX 8 13 0 -1
BITMAP
02
0F
08
FE
7C
7C
78
60
78
78
30
38
58
ENDCHAR
STARTCHAR Ecircumflex
ENCODING 202
SWIDTH 570 0
DWIDTH 7 0
BBX 7 15 0 -1
BITMAP
28
38
68
4C
44
FE
7C
7C
78
60
78
78
30
38
58
ENDCHAR
STARTCHAR Edieresis
ENCODING 203
SWIDTH 570 0
DWIDTH 7 0
BBX 7 14 0 -1
BITMAP
04
6C
6C
00
FE
7C
7C
78
60
78
78
30
38
58
ENDCHAR
STARTCHAR Igrave
ENCODING 204
SWIDTH 401 0
DWIDTH 5 0
BBX 6 14 -1 -1
BITMAP
40
E0
30
00
7C
38
38
38
30
38
10
18
10
18
ENDCHAR
STARTCHAR Iacute
ENCODING 205
SWIDTH 401 0
DWIDTH 5 0
BBX 6 14 0 -1
BITMAP
0C
1C
10
00
F8
70
70
70
60
70
20
30
20
30
ENDCHAR
STARTCHAR Icircumflex
ENCODING 206
SWIDTH 401 0
DWIDTH 5 0
BBX 5 15 0 -1
BITMAP
50
70
F0
98
88
F0
70
70
70
60
70
20
30
20
30
ENDCHAR
STARTCHAR Idieresis
ENCODING 207
SWIDTH 401 0
DWIDTH 5 0
BBX 6 14 -1 -1
BITMAP
04
EC
EC
00
7C
38
38
38
30
38
10
18
10
18
ENDCHAR
STARTCHAR Eth
ENCODING 208
SWIDTH 530 0
DWIDTH 6 0
BBX 7 11 0 -2
BITMAP
38
7C
7E
3E
34
F4
34
3C
38
30
10
ENDCHAR
STARTCHAR Ntilde
ENCODING 209
SWIDTH 610 0
DWIDTH 7 0
BBX 7 15 0 -2
BITMAP
48
7C
34
00
EE
7C
7C
7C
7C
7C
3C
2C
28
28
28
ENDCHAR
STARTCHAR Ograve
ENCODING 210
SWIDTH 504 0
DWIDTH 6 0
BBX 7 13 -1 -1
BITMAP
40
F0
10
18
3E
7E
7E
3E
26
34
3C
3C
1C
ENDCHAR
STARTCHAR Oacute
ENCODING 211
SWIDTH 504 0
DWIDTH 6 0
BBX 7 13 0 -1
BITMAP
04
0E
18
30
7C
FC
FC
7C
4C
68
78
78
38
ENDCHAR
STARTCHAR Ocircumflex
ENCODING 212
SWIDTH 504 0
DWIDTH 6 0
BBX 6 15 0 -1
BITMAP
50
70
78
CC
88
30
7C
FC
FC
7C
4C
68
78
78
38
ENDCHAR
STARTCHAR Otilde
ENCODING 213
SWIDTH 504 0
DWIDTH 6 0
BBX 6 14 0 -1
BITMAP
50
FC
68
00
30
7C
FC
FC
7C
4C
68
78
78
38
ENDCHAR
STARTCHAR Odieresis
ENCODING 214
SWIDTH 504 0
DWIDTH 6 0
BBX 6 14 0 -1
BITMAP
08
DC
DC
00
30
7C
FC
FC
7C
4C
68
78
78
38
ENDCHAR
STARTCHAR multiply
ENCODING 215
SWIDTH 359 0
DWIDTH 4 0
BBX 4 5 0 2
BITMAP
50
F0
60
F0
50
ENDCHAR
STARTCHAR Oslash
ENCODING 216
SWIDTH 658 0
DWIDTH 8 0
BBX 8 10 0 -1
BITMAP
38
7D
7E
7C
6C
7C
6C
6C
B8
A8
ENDCHAR
STARTCHAR Ugrave
ENCODING 217
SWIDTH 637 0
DWIDTH 8 0
BBX 8 14 0 -1
BITMAP
40
F0
10
00
FF
6E
6E
6C
6C
6C
6C
3C
28
28
ENDCHAR
STARTCHAR Uacute
ENCODING 218
SWIDTH 637 0
DWIDTH 8 0
BBX 8 14 0 -1
BITMAP
02
07
08
00
FF
6E
6E
6C
6C
6C
6C
3C
28
28
ENDCHAR
STARTCHAR Ucircumflex
ENCODING 219
SWIDTH 637 0
DWIDTH 8 0
BBX 8 15 0 -1
BITMAP
28
38
3C
66
44
FF
6E
6E
6C
6C
6C
6C
3C
28
28
ENDCHAR
STARTCHAR Udieresis
ENCODING 220
SWIDTH 637 0
DWIDTH 8 0
BBX 8 14 0 -1
BITMAP
04
6E
6E
00
FF
6E
6E
6C
6C
6C
6C
3C
28
28
ENDCHAR
STARTCHAR Yacute
ENCODING 221
SWIDTH 688 0
DWIDTH 8 0
BBX 9 14 0 -1
BITMAP
0300
0700
0C00
0000
F680
3700
1E00
1C00
0C00
0C00
0C00
0C00
0C00
0800
ENDCHAR
STARTCHAR Thorn
ENCODING 222
SWIDTH 521 0
DWIDTH 6 0
BBX 6 13 0 -2
BITMAP
F0
E0
F8
7C
7C
7C
6C
6C
78
60
60
60
60
ENDCHAR
STARTCHAR germandbls
ENCODING 223
SWIDTH 546 0
DWIDTH 7 0
BBX 6 10 0 -1
BITMAP
78
7C
FC
FC
6C
78
78
68
78
78
ENDCHAR
STARTCHAR agrave
ENCODING 224
SWIDTH 479 0
DWIDTH 6 0
BBX 6 14 0 -1
BITMAP
C0
E0
30
00
FC
78
78
78
78
78
78
78
78
58
ENDCHAR
STARTCHAR aacute
ENCODING 225
SWIDTH 479 0
DWIDTH 6 0
BBX 7 14 0 -1
BITMAP
04
0E
18
00
FC
78
78
78
78
78
78
78
78
58
ENDCHAR
STARTCHAR acircumflex
ENCODING 226
SWIDTH 479 0
DWIDTH 6 0
BBX 6 15 0 -1
BITMAP
30
78
78
CC
48
FC
78
78
78
78
78
78
78
78
58
ENDCHAR
STARTCHAR atilde
ENCODING 227
SWIDTH 479 0
DWIDTH 6 0
BBX 6 14 0 -1
BITMAP
58
FC
68
00
FC
78
78
78
78
78
78
78
78
58
ENDCHAR
STARTCHAR adieresis
ENCODING 228
SWIDTH 479 0
DWIDTH 6 0
BBX 6 14 0 -1
BITMAP
14
EC
EC
00
FC
78
78
78
78
78
78
78
78
58
ENDCHAR
STARTCHAR aring
ENCODING 229
SWIDTH 479 0
DWIDTH 6 0
BBX 6 14 0 -1
BITMAP
30
48
30
10
FC
78
78
78
78
78
78
78
78
58
ENDCHAR
STARTCHAR ae
ENCODING 230
SWIDTH 755 0
DWIDTH 9 0
BBX 9 10 0 -1
BITMAP
FF80
7F00
7F00
7F00
7900
7E00
7E00
7800
7E00
5A00
ENDCHAR
STARTCHAR ccedilla
ENCODING 231
SWIDTH 534 0
DWIDTH 6 0
BBX 6 14 0 -5
BITMAP
38
7C
FC
FC
6C
64
60
6C
38
10
18
10
08
18
ENDCHAR
STARTCHAR egrave
ENCODING 232
SWIDTH 632 0
DWIDTH 8 0
BBX 7 14 0 -1
BITMAP
40
E0
10
00
FE
7E
7C
7C
74
38
38
30
3C
34
ENDCHAR
STARTCHAR eacute
ENCODING 233
SWIDTH 632 0
DWIDTH 8 0
BBX 8 14 0 -1
BITMAP
02
07
08
00
FE
7E
7C
7C
74
38
38
30
3C
34
ENDCHAR
STARTCHAR ecircumflex
ENCODING 234
SWIDTH 632 0
DWIDTH 8 0
BBX 7 15 0 -1
BITMAP
28
38
2C
64
44
FE
7E
7C
7C
74
38
38
30
3C
34
ENDCHAR
STARTCHAR edieresis
ENCODING 235
SWIDTH 632 0
DWIDTH 8 0
BBX 7 14 0 -1
BITMAP
04
6E
6E
00
FE
7E
7C
7C
74
38
38
30
3C
34
ENDCHAR
STARTCHAR igrave
ENCODING 236
SWIDTH 411 0
DWIDTH 5 0
BBX 6 13 -1 0
BITMAP
40
E0
30
00
7C
38
38
38
38
18
18
10
10
ENDCHAR
STARTCHAR iacute
ENCODING 237
SWIDTH 411 0
DWIDTH 5 0
BBX 7 13 0 0
BITMAP
04
1E
10
00
F8
70
70
70
70
30
30
20
20
ENDCHAR
STARTCHAR icircumflex
ENCODING 238
SWIDTH 411 0
DWIDTH 5 0
BBX 5 14 0 0
BITMAP
50
70
58
C8
88
F8
70
70
70
70
30
30
20
20
ENDCHAR
STARTCHAR idieresis
ENCODING 239
SWIDTH 411 0
DWIDTH 5 0
BBX 5 13 0 0
BITMAP
08
D8
D8
00
F8
70
70
70
70
30
30
20
20
ENDCHAR
STARTCHAR eth
ENCODING 240
SWIDTH 530 0
DWIDTH 6 0
BBX 7 11 0 -2
BITMAP
38
7C
7E
3E
34
F4
34
3C
38
30
10
ENDCHAR
STARTCHAR ntilde
ENCODING 241
SWIDTH 664 0
DWIDTH 8 0
BBX 8 14 0 -1
BITMAP
2C
7E
34
00
F7
76
76
7E
7E
7C
7C
2C
2C
28
ENDCHAR
STARTCHAR ograve
ENCODING 242
SWIDTH 545 0
DWIDTH 7 0
BBX 6 14 0 -1
BITMAP
40
E0
30
00
38
7C
FC
FC
6C
6C
6C
68
7C
18
ENDCHAR
STARTCHAR oacute
ENCODING 243
SWIDTH 545 0
DWIDTH 7 0
BBX 7 14 0 -1
BITMAP
04
0E
18
00
38
7C
FC
FC
6C
6C
6C
68
7C
18
ENDCHAR
STARTCHAR ocircumflex
ENCODING 244
SWIDTH 545 0
DWIDTH 7 0
BBX 6 15 0 -1
BITMAP
30
38
78
4C
C4
38
7C
FC
FC
6C
6C
6C
68
7C
18
ENDCHAR
STARTCHAR otilde
ENCODING 245
SWIDTH 545 0
DWIDTH 7 0
BBX 6 14 0 -1
BITMAP
58
FC
68
00
38
7C
FC
FC
6C
6C
6C
68
7C
18
ENDCHAR
STARTCHAR odieresis
ENCODING 246
SWIDTH 545 0
DWIDTH 7 0
BBX 6 14 0 -1
BITMAP
04
EC
EC
00
38
7C
FC
FC
6C
6C
6C
68
7C
18
ENDCHAR
STARTCHAR oslash
ENCODING 248
SWIDTH 676 0
DWIDTH 8 0
BBX 8 10 0 -1
BITMAP
39
7E
FC
FC
6C
7C
6C
68
BC
18
ENDCHAR
STARTCHAR ugrave
ENCODING 249
SWIDTH 708 0
DWIDTH 9 0
BBX 9 13 0 0
BITMAP
2000
7000
1800
0000
F600
7780
7700
7600
3600
3600
3600
3E00
3C00
ENDCHAR
STARTCHAR uacute
ENCODING 250
SWIDTH 708 0
DWIDTH 9 0
BBX 9 13 0 0
BITMAP
0300
0700
0C00
0000
F600
7780
7700
7600
3600
3600
3600
3E00
3C00
ENDCHAR
STARTCHAR ucircumflex
ENCODING 251
SWIDTH 708 0
DWIDTH 9 0
BBX 9 14 0 0
BITMAP
1400
1C00
3C00
2600
2200
F600
7780
7700
7600
3600
3600
3600
3E00
3C00
ENDCHAR
STARTCHAR udieresis
ENCODING 252
SWIDTH 708 0
DWIDTH 9 0
BBX 9 13 0 0
BITMAP
0200
7600
7600
0000
F600
7780
7700
7600
3600
3600
3600
3E00
3C00
ENDCHAR
STARTCHAR yacute
ENCODING 253
SWIDTH 604 0
DWIDTH 7 0
BBX 8 14 0 -1
BITMAP
02
07
08
00
EE
2C
38
18
18
18
18
18
18
18
ENDCHAR
STARTCHAR thorn
ENCODING 254
SWIDTH 498 0
DWIDTH 6 0
BBX 6 13 0 -2
BITMAP
E0
E0
F8
7C
7C
7C
68
68
78
60
60
60
60
ENDCHAR
STARTCHAR ydieresis
ENCODING 255
SWIDTH 604 0
DWIDTH 7 0
BBX 7 14 0 -1
BITMAP
02
6E
6E
00
EE
2C
38
18
18
18
18
18
18
18
ENDCHAR
STARTCHAR Amacron
ENCODING 256
SWIDTH 494 0
DWIDTH 6 0
BBX 6 14 0 -3
BITMAP
78
28
FC
78
78
78
70
70
70
70
70
50
50
10
ENDCHAR
STARTCHAR amacron
ENCODING 257
SWIDTH 479 0
DWIDTH 6 0
BBX 6 12 0 -1
BITMAP
78
28
FC
78
78
78
78
78
78
78
78
58
ENDCHAR
STARTCHAR Abreve
ENCODING 258
SWIDTH 494 0
DWIDTH 6 0
BBX 6 17 0 -3
BITMAP
60
6C
38
18
00
FC
78
78
78
70
70
70
70
70
50
50
10
ENDCHAR
STARTCHAR abreve
ENCODING 259
SWIDTH 479 0
DWIDTH 6 0
BBX 6 15 0 -1
BITMAP
60
6C
38
18
00
FC
78
78
78
78
78
78
78
78
58
ENDCHAR
STARTCHAR Aogonek
ENCODING 260
SWIDTH 494 0
DWIDTH 6 0
BBX 6 14 0 -5
BITMAP
FC
78
78
78
70
70
70
70
70
50
50
10
1C
1C
ENDCHAR
STARTCHAR aogonek
ENCODING 261
SWIDTH 479 0
DWIDTH 6 0
BBX 6 13 0 -4
BITMAP
FC
78
78
78
78
78
78
78
78
58
10
18
0C
ENDCHAR
STARTCHAR Cacute
ENCODING 262
SWIDTH 504 0
DWIDTH 6 0
BBX 7 13 0 -1
BITMAP
04
1E
10
38
7C
FC
FC
6C
60
60
78
78
30
ENDCHAR
STARTCHAR cacute
ENCODING 263
SWIDTH 534 0
DWIDTH 6 0
BBX 7 14 0 -1
BITMAP
04
0E
10
00
38
7C
FC
FC
6C
64
60
6C
38
10
ENDCHAR
STARTCHAR Ccircumflex
ENCODING 264
SWIDTH 504 0
DWIDTH 6 0
BBX 6 15 0 -1
BITMAP
28
38
78
4C
44
38
7C
FC
FC
6C
60
60
78
78
30
ENDCHAR
STARTCHAR ccircumflex
ENCODING 265
SWIDTH 534 0
DWIDTH 6 0
BBX 6 15 0 -1
BITMAP
28
38
2C
64
44
38
7C
FC
FC
6C
64
60
6C
38
10
ENDCHAR
STARTCHAR Cdotaccent
ENCODING 266
SWIDTH 504 0
DWIDTH 6 0
BBX 6 14 0 -1
BITMAP
78
38
38
00
38
7C
FC
FC
6C
60
60
78
78
30
ENDCHAR
STARTCHAR cdotaccent
ENCODING 267
SWIDTH 534 0
DWIDTH 6 0
BBX 6 14 0 -1
BITMAP
38
38
38
00
38
7C
FC
FC
6C
64
60
6C
38
10
ENDCHAR
STARTCHAR Ccaron
ENCODING 268
SWIDTH 504 0
DWIDTH 6 0
BBX 6 15 0 -1
BITMAP
C8
4C
78
38
10
38
7C
FC
FC
6C
60
60
78
78
30
ENDCHAR
STARTCHAR ccaron
ENCODING 269
SWIDTH 534 0
DWIDTH 6 0
BBX 6 15 0 -1
BITMAP
44
6C
2C
38
08
38
7C
FC
FC
6C
64
60
6C
38
10
ENDCHAR
STARTCHAR Dcaron
ENCODING 270
SWIDTH 522 0
DWIDTH 6 0
BBX 6 16 0 -2
BITMAP
44
6C
2C
38
08
38
FC
7C
7C
6C
6C
68
28
38
50
10
ENDCHAR
STARTCHAR dcaron
ENCODING 271
SWIDTH 522 0
DWIDTH 6 0
BBX 6 16 0 -2
BITMAP
44
6C
2C
38
08
38
FC
7C
7C
6C
6C
68
28
38
50
10
ENDCHAR
STARTCHAR Eth.dup2
ENCODING 272
SWIDTH 530 0
DWIDTH 6 0
BBX 7 11 0 -2
BITMAP
38
7C
7E
3E
34
F4
34
3C
38
30
10
ENDCHAR
STARTCHAR Emacron
ENCODING 274
SWIDTH 570 0
DWIDTH 7 0
BBX 7 12 0 -1
BITMAP
78
34
FE
7C
7C
78
60
78
78
30
38
58
ENDCHAR
STARTCHAR emacron
ENCODING 275
SWIDTH 632 0
DWIDTH 8 0
BBX 7 12 0 -1
BITMAP
3C
34
FE
7E
7C
7C
74
38
38
30
3C
34
ENDCHAR
STARTCHAR Ebreve
ENCODING 276
SWIDTH 570 0
DWIDTH 7 0
BBX 7 15 0 -1
BITMAP
20
24
3C
08
00
FE
7C
7C
78
60
78
78
30
38
58
ENDCHAR
STARTCHAR ebreve
ENCODING 277
SWIDTH 632 0
DWIDTH 8 0
BBX 7 15 0 -1
BITMAP
30
36
1C
0C
00
FE
7E
7C
7C
74
38
38
30
3C
34
ENDCHAR
STARTCHAR Edotaccent
ENCODING 278
SWIDTH 570 0
DWIDTH 7 0
BBX 7 14 0 -1
BITMAP
78
38
38
00
FE
7C
7C
78
60
78
78
30
38
58
ENDCHAR
STARTCHAR edotaccent
ENCODING 279
SWIDTH 632 0
DWIDTH 8 0
BBX 7 14 0 -1
BITMAP
38
38
38
00
FE
7E
7C
7C
74
38
38
30
3C
34
ENDCHAR
STARTCHAR Eogonek
ENCODING 280
SWIDTH 513 0
DWIDTH 6 0
BBX 7 13 0 -4
BITMAP
FE
7C
7C
78
60
78
78
30
38
58
10
1C
0C
ENDCHAR
STARTCHAR eogonek
ENCODING 281
SWIDTH 632 0
DWIDTH 8 0
BBX 7 13 0 -4
BITMAP
FE
7E
7C
7C
74
38
38
30
3C
28
08
0E
0E
ENDCHAR
STARTCHAR Ecaron
ENCODING 282
SWIDTH 570 0
DWIDTH 7 0
BBX 7 15 0 -1
BITMAP
44
6C
2C
38
08
FE
7C
7C
78
60
78
78
30
38
58
ENDCHAR
STARTCHAR ecaron
ENCODING 283
SWIDTH 632 0
DWIDTH 8 0
BBX 7 15 0 -1
BITMAP
24
26
3C
1C
04
FE
7E
7C
7C
74
38
38
30
3C
34
ENDCHAR
STARTCHAR Gcircumflex
ENCODING 284
SWIDTH 499 0
DWIDTH 6 0
BBX 6 15 0 -1
BITMAP
70
70
78
CC
88
30
78
FC
FC
58
44
78
68
78
30
ENDCHAR
STARTCHAR gcircumflex
ENCODING 285
SWIDTH 546 0
DWIDTH 7 0
BBX 6 15 0 -1
BITMAP
30
38
78
4C
C4
78
FC
FC
FC
6C
6C
7C
6C
7C
38
ENDCHAR
STARTCHAR Gbreve
ENCODING 286
SWIDTH 499 0
DWIDTH 6 0
BBX 6 15 0 -1
BITMAP
44
48
78
18
00
30
78
FC
FC
58
44
78
68
78
30
ENDCHAR
STARTCHAR gbreve
ENCODING 287
SWIDTH 546 0
DWIDTH 7 0
BBX 6 15 0 -1
BITMAP
60
6C
38
18
00
78
FC
FC
FC
6C
6C
7C
6C
7C
38
ENDCHAR
STARTCHAR Gdotaccent
ENCODING 288
SWIDTH 499 0
DWIDTH 6 0
BBX 6 14 0 -1
BITMAP
70
78
30
00
30
78
FC
FC
58
44
78
68
78
30
ENDCHAR
STARTCHAR gdotaccent
ENCODING 289
SWIDTH 546 0
DWIDTH 7 0
BBX 6 14 0 -1
BITMAP
78
38
38
00
78
FC
FC
FC
6C
6C
7C
6C
7C
38
ENDCHAR
STARTCHAR Gcommaaccent
ENCODING 290
SWIDTH 499 0
DWIDTH 6 0
BBX 6 16 0 -7
BITMAP
30
78
FC
FC
58
44
78
68
78
30
00
38
38
38
18
18
ENDCHAR
STARTCHAR Hcircumflex
ENCODING 292
SWIDTH 726 0
DWIDTH 9 0
BBX 9 16 0 -2
BITMAP
1800
1C00
3C00
2600
6200
B780
7700
7600
7600
3600
3E00
3600
3400
3C00
2400
0800
ENDCHAR
STARTCHAR hcircumflex
ENCODING 293
SWIDTH 730 0
DWIDTH 9 0
BBX 9 15 0 -1
BITMAP
1400
1C00
3C00
2600
2200
F780
7700
7600
7600
3600
3E00
3600
3600
3C00
0400
ENDCHAR
STARTCHAR hbar
ENCODING 295
SWIDTH 704 0
DWIDTH 8 0
BBX 8 10 0 -1
BITMAP
F7
67
7E
7E
26
3C
36
36
3C
04
ENDCHAR
STARTCHAR Itilde
ENCODING 296
SWIDTH 401 0
DWIDTH 5 0
BBX 6 14 -1 -1
BITMAP
48
FC
68
00
7C
38
38
38
30
38
10
18
10
18
ENDCHAR
STARTCHAR itilde
ENCODING 297
SWIDTH 411 0
DWIDTH 5 0
BBX 6 13 -1 0
BITMAP
48
FC
68
00
7C
38
38
38
38
18
18
10
10
ENDCHAR
STARTCHAR Imacron
ENCODING 298
SWIDTH 401 0
DWIDTH 5 0
BBX 5 12 0 -1
BITMAP
F0
70
F8
70
70
70
60
70
20
30
20
30
ENDCHAR
STARTCHAR imacron
ENCODING 299
SWIDTH 411 0
DWIDTH 5 0
BBX 5 11 0 0
BITMAP
F0
70
F8
70
70
70
70
30
30
20
20
ENDCHAR
STARTCHAR Ibreve
ENCODING 300
SWIDTH 401 0
DWIDTH 5 0
BBX 5 15 0 -1
BITMAP
C0
58
70
10
00
F8
70
70
70
60
70
20
30
20
30
ENDCHAR
STARTCHAR ibreve
ENCODING 301
SWIDTH 411 0
DWIDTH 5 0
BBX 5 14 0 0
BITMAP
C0
58
70
10
00
F8
70
70
70
70
30
30
20
20
ENDCHAR
STARTCHAR Iogonek
ENCODING 302
SWIDTH 401 0
DWIDTH 5 0
BBX 5 14 0 -5
BITMAP
F8
70
70
70
60
70
20
30
20
30
60
60
70
10
ENDCHAR
STARTCHAR iogonek
ENCODING 303
SWIDTH 412 0
DWIDTH 5 0
BBX 5 13 0 -4
BITMAP
F8
70
70
70
70
30
30
20
20
20
60
60
38
ENDCHAR
STARTCHAR Idotaccent
ENCODING 304
SWIDTH 401 0
DWIDTH 5 0
BBX 5 14 0 -1
BITMAP
F0
70
70
00
F8
70
70
70
60
70
20
30
20
30
ENDCHAR
STARTCHAR dotlessi
ENCODING 305
SWIDTH 411 0
DWIDTH 5 0
BBX 5 9 0 0
BITMAP
F8
70
70
70
70
30
30
20
20
ENDCHAR
STARTCHAR IJ
ENCODING 306
SWIDTH 908 0
DWIDTH 11 0
BBX 11 10 0 -1
BITMAP
F9E0
70C0
70C0
70C0
7080
7080
3680
3780
3380
2200
ENDCHAR
STARTCHAR ij
ENCODING 307
SWIDTH 901 0
DWIDTH 11 0
BBX 11 10 0 -1
BITMAP
F9E0
71C0
71C0
71C0
71C0
30C0
3680
3680
3380
0080
ENDCHAR
STARTCHAR Jcircumflex
ENCODING 308
SWIDTH 455 0
DWIDTH 5 0
BBX 6 15 0 -1
BITMAP
28
38
78
4C
44
38
38
30
30
30
30
B0
B0
E0
40
ENDCHAR
STARTCHAR jcircumflex
ENCODING 309
SWIDTH 458 0
DWIDTH 6 0
BBX 6 15 0 -1
BITMAP
28
38
78
4C
44
38
38
30
30
30
30
B0
F0
F0
10
ENDCHAR
STARTCHAR Kcommaaccent
ENCODING 310
SWIDTH 580 0
DWIDTH 7 0
BBX 7 16 0 -7
BITMAP
EE
6C
68
38
38
38
38
28
28
34
00
38
38
38
08
08
ENDCHAR
STARTCHAR kcommaaccent
ENCODING 311
SWIDTH 636 0
DWIDTH 8 0
BBX 8 15 0 -6
BITMAP
FF
7C
7C
38
38
38
38
3C
34
04
1C
1C
1C
0C
08
ENDCHAR
STARTCHAR kgreenlandic
ENCODING 312
SWIDTH 636 0
DWIDTH 8 0
BBX 8 10 0 -1
BITMAP
FF
7C
7C
38
38
38
38
3C
34
04
ENDCHAR
STARTCHAR Lacute
ENCODING 313
SWIDTH 416 0
DWIDTH 5 0
BBX 7 13 0 -1
BITMAP
04
1E
10
F0
60
60
60
60
60
60
78
38
28
ENDCHAR
STARTCHAR lacute
ENCODING 314
SWIDTH 438 0
DWIDTH 5 0
BBX 7 14 0 -1
BITMAP
04
0E
10
00
F8
70
70
70
30
30
20
3C
38
28
ENDCHAR
STARTCHAR Lcommaaccent
ENCODING 315
SWIDTH 416 0
DWIDTH 5 0
BBX 5 16 0 -7
BITMAP
F0
60
60
60
60
60
60
78
38
28
00
70
70
70
10
10
ENDCHAR
STARTCHAR lcommaaccent
ENCODING 316
SWIDTH 438 0
DWIDTH 5 0
BBX 6 16 0 -7
BITMAP
F8
70
70
70
30
30
20
3C
38
28
00
30
30
30
10
10
ENDCHAR
STARTCHAR Lcaron
ENCODING 317
SWIDTH 714 0
DWIDTH 9 0
BBX 8 10 0 -1
BITMAP
F7
67
67
61
61
61
60
78
38
28
ENDCHAR
STARTCHAR lcaron
ENCODING 318
SWIDTH 782 0
DWIDTH 9 0
BBX 9 10 0 -1
BITMAP
FB80
7380
7380
7080
3080
3180
2000
3C00
3800
2800
ENDCHAR
STARTCHAR Ldotaccent
ENCODING 319
SWIDTH 567 0
DWIDTH 7 0
BBX 7 10 0 -1
BITMAP
F0
60
6E
6E
6E
6A
60
78
38
28
ENDCHAR
STARTCHAR ldot
ENCODING 320
SWIDTH 660 0
DWIDTH 8 0
BBX 8 10 0 -1
BITMAP
F8
70
70
77
37
37
20
3C
38
28
ENDCHAR
STARTCHAR Lslash
ENCODING 321
SWIDTH 428 0
DWIDTH 5 0
BBX 6 10 0 -1
BITMAP
F0
60
64
78
FC
E0
20
38
38
28
ENDCHAR
STARTCHAR lslash
ENCODING 322
SWIDTH 457 0
DWIDTH 5 0
BBX 6 10 0 -1
BITMAP
F8
70
74
7C
FC
70
30
3C
38
28
ENDCHAR
STARTCHAR Nacute
ENCODING 323
SWIDTH 610 0
DWIDTH 7 0
BBX 8 15 0 -2
BITMAP
02
07
08
00
EE
7C
7C
7C
7C
7C
3C
2C
28
28
28
ENDCHAR
STARTCHAR nacute
ENCODING 324
SWIDTH 664 0
DWIDTH 8 0
BBX 8 14 0 -1
BITMAP
02
07
0C
00
F7
76
76
7E
7E
7C
7C
2C
2C
28
ENDCHAR
STARTCHAR Ncommaaccent
ENCODING 325
SWIDTH 610 0
DWIDTH 7 0
BBX 7 17 0 -8
BITMAP
EE
7C
7C
7C
7C
7C
3C
2C
28
28
28
00
1C
1C
1C
0C
08
ENDCHAR
STARTCHAR ncommaaccent
ENCODING 326
SWIDTH 664 0
DWIDTH 8 0
BBX 8 16 0 -7
BITMAP
F7
76
76
7E
7E
7C
7C
2C
2C
28
00
1C
1C
1C
04
0C
ENDCHAR
STARTCHAR Ncaron
ENCODING 327
SWIDTH 610 0
DWIDTH 7 0
BBX 7 16 0 -2
BITMAP
24
66
3C
38
08
EE
7C
7C
7C
7C
7C
3C
2C
28
28
28
ENDCHAR
STARTCHAR ncaron
ENCODING 328
SWIDTH 664 0
DWIDTH 8 0
BBX 8 15 0 -1
BITMAP
22
36
3C
1C
04
F7
76
76
7E
7E
7C
7C
2C
2C
28
ENDCHAR
STARTCHAR Omacron
ENCODING 332
SWIDTH 504 0
DWIDTH 6 0
BBX 6 12 0 -1
BITMAP
78
28
30
7C
FC
FC
7C
4C
68
78
78
38
ENDCHAR
STARTCHAR omacron
ENCODING 333
SWIDTH 545 0
DWIDTH 7 0
BBX 6 12 0 -1
BITMAP
78
28
38
7C
FC
FC
6C
6C
6C
68
7C
18
ENDCHAR
STARTCHAR Obreve
ENCODING 334
SWIDTH 504 0
DWIDTH 6 0
BBX 6 15 0 -1
BITMAP
40
6C
78
18
00
30
7C
FC
FC
7C
4C
68
78
78
38
ENDCHAR
STARTCHAR obreve
ENCODING 335
SWIDTH 545 0
DWIDTH 7 0
BBX 6 15 0 -1
BITMAP
60
6C
38
18
00
38
7C
FC
FC
6C
6C
6C
68
7C
18
ENDCHAR
STARTCHAR Ohungarumlaut
ENCODING 336
SWIDTH 504 0
DWIDTH 6 0
BBX 6 15 0 -1
BITMAP
48
6C
68
D0
90
30
7C
FC
FC
7C
4C
68
78
78
38
ENDCHAR
STARTCHAR ohungarumlaut
ENCODING 337
SWIDTH 545 0
DWIDTH 7 0
BBX 7 15 0 -1
BITMAP
28
3E
6C
48
50
38
7C
FC
FC
6C
6C
6C
68
7C
18
ENDCHAR
STARTCHAR OE
ENCODING 338
SWIDTH 789 0
DWIDTH 9 0
BBX 9 11 0 -2
BITMAP
3F80
7F80
FF00
FF00
7C00
4E00
6E00
7F00
7E00
3D00
1500
ENDCHAR
STARTCHAR oe
ENCODING 339
SWIDTH 778 0
DWIDTH 9 0
BBX 9 10 0 -1
BITMAP
3F80
7F00
FF00
FF00
6D00
6E00
6E00
7C00
7E00
1D00
ENDCHAR
STARTCHAR Racute
ENCODING 340
SWIDTH 599 0
DWIDTH 7 0
BBX 8 14 0 -1
BITMAP
02
07
08
00
FC
7E
3E
3E
36
3C
3C
3C
3C
34
ENDCHAR
STARTCHAR racute
ENCODING 341
SWIDTH 616 0
DWIDTH 7 0
BBX 8 14 0 -1
BITMAP
02
07
08
00
FC
7E
3E
3E
36
3E
3C
3C
3C
34
ENDCHAR
STARTCHAR Rcommaaccent
ENCODING 342
SWIDTH 599 0
DWIDTH 7 0
BBX 7 16 0 -7
BITMAP
FC
7E
3E
3E
36
3C
3C
3C
3C
34
00
18
18
38
08
08
ENDCHAR
STARTCHAR rcommaaccent
ENCODING 343
SWIDTH 616 0
DWIDTH 7 0
BBX 7 16 0 -7
BITMAP
FC
7E
3E
3E
36
3E
3C
3C
3C
34
00
1C
1C
1C
08
08
ENDCHAR
STARTCHAR Rcaron
ENCODING 344
SWIDTH 599 0
DWIDTH 7 0
BBX 7 15 0 -1
BITMAP
24
66
3C
1C
08
FC
7E
3E
3E
36
3C
3C
3C
3C
34
ENDCHAR
STARTCHAR rcaron
ENCODING 345
SWIDTH 616 0
DWIDTH 7 0
BBX 7 15 0 -1
BITMAP
24
66
3C
3C
08
FC
7E
3E
3E
36
3E
3C
3C
3C
34
ENDCHAR
STARTCHAR Sacute
ENCODING 346
SWIDTH 504 0
DWIDTH 6 0
BBX 7 14 0 -1
BITMAP
04
0E
10
00
38
7C
FC
FC
FC
70
38
68
78
30
ENDCHAR
STARTCHAR sacute
ENCODING 347
SWIDTH 481 0
DWIDTH 6 0
BBX 7 14 0 -1
BITMAP
04
0E
10
00
30
7C
F8
F8
F8
70
38
78
70
30
ENDCHAR
STARTCHAR Scircumflex
ENCODING 348
SWIDTH 504 0
DWIDTH 6 0
BBX 6 15 0 -1
BITMAP
28
38
78
4C
44
38
7C
FC
FC
FC
70
38
68
78
30
ENDCHAR
STARTCHAR scircumflex
ENCODING 349
SWIDTH 481 0
DWIDTH 6 0
BBX 6 15 0 -1
BITMAP
30
38
78
4C
C4
30
7C
F8
F8
F8
70
38
78
70
30
ENDCHAR
STARTCHAR Scedilla
ENCODING 350
SWIDTH 504 0
DWIDTH 6 0
BBX 6 13 0 -4
BITMAP
38
7C
FC
FC
FC
70
38
68
78
30
30
08
18
ENDCHAR
STARTCHAR scedilla
ENCODING 351
SWIDTH 481 0
DWIDTH 6 0
BBX 6 13 0 -4
BITMAP
30
7C
F8
F8
F8
70
38
78
70
30
20
10
30
ENDCHAR
STARTCHAR Scaron
ENCODING 352
SWIDTH 503 0
DWIDTH 6 0
BBX 6 16 0 -1
BITMAP
CC
68
78
30
00
00
38
7C
FC
FC
FC
70
38
68
78
30
ENDCHAR
STARTCHAR scaron
ENCODING 353
SWIDTH 479 0
DWIDTH 6 0
BBX 6 16 0 -1
BITMAP
CC
48
78
30
00
00
30
7C
F8
F8
F8
70
38
78
70
30
ENDCHAR
STARTCHAR Tcommaaccent
ENCODING 354
SWIDTH 622 0
DWIDTH 7 0
BBX 7 14 0 -5
BITMAP
FC
7E
7E
7C
5A
18
18
18
18
18
10
10
08
18
ENDCHAR
STARTCHAR tcommaaccent
ENCODING 355
SWIDTH 683 0
DWIDTH 8 0
BBX 8 14 0 -5
BITMAP
FF
7E
7E
7E
5A
18
18
08
08
08
08
08
04
0C
ENDCHAR
STARTCHAR Tcaron
ENCODING 356
SWIDTH 622 0
DWIDTH 7 0
BBX 7 15 0 -1
BITMAP
44
6C
3C
38
08
FC
7E
7E
7C
5A
18
18
18
18
18
ENDCHAR
STARTCHAR tcaron
ENCODING 357
SWIDTH 622 0
DWIDTH 7 0
BBX 7 15 0 -1
BITMAP
24
66
3C
3C
08
FC
7E
7E
7C
5A
18
18
18
18
18
ENDCHAR
STARTCHAR Utilde
ENCODING 360
SWIDTH 637 0
DWIDTH 8 0
BBX 8 14 0 -1
BITMAP
28
7C
34
00
FF
6E
6E
6C
6C
6C
6C
3C
28
28
ENDCHAR
STARTCHAR utilde
ENCODING 361
SWIDTH 708 0
DWIDTH 9 0
BBX 9 13 0 0
BITMAP
2400
7E00
3400
0000
F600
7780
7700
7600
3600
3600
3600
3E00
3C00
ENDCHAR
STARTCHAR Umacron
ENCODING 362
SWIDTH 637 0
DWIDTH 8 0
BBX 8 12 0 -1
BITMAP
3C
14
EF
6E
6E
6C
6C
6C
6C
3C
28
28
ENDCHAR
STARTCHAR umacron
ENCODING 363
SWIDTH 708 0
DWIDTH 9 0
BBX 9 11 0 0
BITMAP
3C00
1C00
F600
7780
7700
7600
3600
3600
3600
3E00
3C00
ENDCHAR
STARTCHAR Ubreve
ENCODING 364
SWIDTH 637 0
DWIDTH 8 0
BBX 8 15 0 -1
BITMAP
22
24
3C
0C
00
FF
6E
6E
6C
6C
6C
6C
3C
28
28
ENDCHAR
STARTCHAR ubreve
ENCODING 365
SWIDTH 708 0
DWIDTH 9 0
BBX 9 14 0 0
BITMAP
3000
1600
1C00
0400
0000
F600
7780
7700
7600
3600
3600
3600
3E00
3C00
ENDCHAR
STARTCHAR Uring
ENCODING 366
SWIDTH 637 0
DWIDTH 8 0
BBX 8 14 0 -1
BITMAP
18
24
18
08
FF
6E
6E
6C
6C
6C
6C
3C
28
28
ENDCHAR
STARTCHAR uring
ENCODING 367
SWIDTH 708 0
DWIDTH 9 0
BBX 9 13 0 0
BITMAP
1C00
1400
1400
0800
F600
7780
7700
7600
3600
3600
3600
3E00
3C00
ENDCHAR
STARTCHAR Uhungarumlaut
ENCODING 368
SWIDTH 637 0
DWIDTH 8 0
BBX 8 15 0 -1
BITMAP
24
36
34
68
48
FF
6E
6E
6C
6C
6C
6C
3C
28
28
ENDCHAR
STARTCHAR uhungarumlaut
ENCODING 369
SWIDTH 708 0
DWIDTH 9 0
BBX 9 14 0 0
BITMAP
1400
1F00
3600
2400
2800
F600
7780
7700
7600
3600
3600
3600
3E00
3C00
ENDCHAR
STARTCHAR Uogonek
ENCODING 370
SWIDTH 637 0
DWIDTH 8 0
BBX 8 13 0 -4
BITMAP
FF
6E
6E
6C
6C
6C
6C
3C
28
28
18
0A
0E
ENDCHAR
STARTCHAR uogonek
ENCODING 371
SWIDTH 662 0
DWIDTH 8 0
BBX 9 12 0 -3
BITMAP
F600
7780
7700
7600
3600
3600
3600
3E00
3C00
1000
1A00
0C00
ENDCHAR
STARTCHAR Wcircumflex
ENCODING 372
SWIDTH 777 0
DWIDTH 9 0
BBX 9 14 0 0
BITMAP
1400
1C00
1600
3200
2200
2B80
EF00
2F00
3E00
3E00
1E00
1E00
1400
1400
ENDCHAR
STARTCHAR wcircumflex
ENCODING 373
SWIDTH 704 0
DWIDTH 8 0
BBX 9 14 0 0
BITMAP
1400
1C00
3C00
2600
2200
EA80
6B00
2A00
3E00
3E00
3C00
1400
1400
1400
ENDCHAR
STARTCHAR Ycircumflex
ENCODING 374
SWIDTH 688 0
DWIDTH 8 0
BBX 9 15 0 -1
BITMAP
1800
1C00
3C00
2600
6200
F680
3700
1E00
1C00
0C00
0C00
0C00
0C00
0C00
0800
ENDCHAR
STARTCHAR ycircumflex
ENCODING 375
SWIDTH 604 0
DWIDTH 7 0
BBX 7 15 0 -1
BITMAP
28
38
2C
44
44
EE
2C
38
18
18
18
18
18
18
18
ENDCHAR
STARTCHAR Ydieresis
ENCODING 376
SWIDTH 688 0
DWIDTH 8 0
BBX 9 14 0 -1
BITMAP
0200
7600
7600
0000
F680
3700
1E00
1C00
0C00
0C00
0C00
0C00
0C00
0800
ENDCHAR
STARTCHAR Zacute
ENCODING 377
SWIDTH 695 0
DWIDTH 8 0
BBX 9 13 0 0
BITMAP
0100
0780
0400
0000
FE00
7F00
7E00
3E00
4C00
1800
1000
3C00
3C00
ENDCHAR
STARTCHAR zacute
ENCODING 378
SWIDTH 622 0
DWIDTH 7 0
BBX 8 14 0 -1
BITMAP
02
07
08
00
FE
7E
7C
3C
58
18
10
1C
38
24
ENDCHAR
STARTCHAR Zdotaccent
ENCODING 379
SWIDTH 695 0
DWIDTH 8 0
BBX 8 13 0 0
BITMAP
3C
1C
1C
00
FE
7F
7E
3E
4C
18
10
3C
3C
ENDCHAR
STARTCHAR zdotaccent
ENCODING 380
SWIDTH 622 0
DWIDTH 7 0
BBX 7 14 0 -1
BITMAP
38
38
38
00
FE
7E
7C
3C
58
18
10
1C
38
24
ENDCHAR
STARTCHAR Zcaron
ENCODING 381
SWIDTH 693 0
DWIDTH 8 0
BBX 8 15 0 0
BITMAP
26
36
1C
1C
00
00
FE
7F
7E
7E
4C
18
10
3C
3C
ENDCHAR
STARTCHAR zcaron
ENCODING 382
SWIDTH 621 0
DWIDTH 7 0
BBX 7 16 0 -1
BITMAP
64
2C
3C
38
00
00
FE
7E
7C
3C
58
18
10
1C
38
24
ENDCHAR
STARTCHAR DZ
ENCODING 497
SWIDTH 194 0
DWIDTH 2 0
BBX 1 1 0 0
BITMAP
00
ENDCHAR
STARTCHAR Dz
ENCODING 498
SWIDTH 194 0
DWIDTH 2 0
BBX 1 1 0 0
BITMAP
00
ENDCHAR
STARTCHAR dotlessj
ENCODING 567
SWIDTH 458 0
DWIDTH 6 0
BBX 5 10 0 -1
BITMAP
78
38
30
30
30
30
B0
F0
F0
10
ENDCHAR
STARTCHAR circumflex
ENCODING 710
SWIDTH 528 0
DWIDTH 6 0
BBX 6 5 0 8
BITMAP
30
38
78
4C
C4
ENDCHAR
STARTCHAR caron
ENCODING 711
SWIDTH 486 0
DWIDTH 6 0
BBX 6 5 0 8
BITMAP
48
CC
78
70
10
ENDCHAR
STARTCHAR breve
ENCODING 728
SWIDTH 464 0
DWIDTH 6 0
BBX 5 4 0 -1
BITMAP
C0
58
78
10
ENDCHAR
STARTCHAR dotaccent
ENCODING 729
SWIDTH 388 0
DWIDTH 5 0
BBX 4 3 0 3
BITMAP
F0
70
70
ENDCHAR
STARTCHAR ring
ENCODING 730
SWIDTH 370 0
DWIDTH 4 0
BBX 3 4 1 3
BITMAP
C0
A0
E0
40
ENDCHAR
STARTCHAR ogonek
ENCODING 731
SWIDTH 360 0
DWIDTH 4 0
BBX 3 4 1 0
BITMAP
80
80
E0
E0
ENDCHAR
STARTCHAR tilde
ENCODING 732
SWIDTH 535 0
DWIDTH 6 0
BBX 6 3 0 -1
BITMAP
48
FC
68
ENDCHAR
STARTCHAR hungarumlaut
ENCODING 733
SWIDTH 554 0
DWIDTH 7 0
BBX 6 5 0 8
BITMAP
48
2C
6C
58
90
ENDCHAR
STARTCHAR dotaccentcmb
ENCODING 775
SWIDTH 396 0
DWIDTH 5 0
BBX 3 4 1 4
BITMAP
E0
E0
E0
80
ENDCHAR
STARTCHAR uni030F
ENCODING 783
SWIDTH 549 0
DWIDTH 7 0
BBX 6 5 0 8
BITMAP
28
D8
68
24
24
ENDCHAR
STARTCHAR uni0311
ENCODING 785
SWIDTH 490 0
DWIDTH 6 0
BBX 4 3 1 4
BITMAP
F0
90
80
ENDCHAR
STARTCHAR uni0326
ENCODING 806
SWIDTH 360 0
DWIDTH 4 0
BBX 3 5 1 -1
BITMAP
E0
E0
E0
60
40
ENDCHAR
STARTCHAR endash
ENCODING 8211
SWIDTH 478 0
DWIDTH 6 0
BBX 4 3 1 3
BITMAP
F0
F0
50
ENDCHAR
STARTCHAR emdash
ENCODING 8212
SWIDTH 567 0
DWIDTH 7 0
BBX 5 3 1 3
BITMAP
F8
F8
68
ENDCHAR
STARTCHAR quoteleft
ENCODING 8216
SWIDTH 373 0
DWIDTH 4 0
BBX 3 6 1 3
BITMAP
80
80
E0
E0
E0
E0
ENDCHAR
STARTCHAR quoteright
ENCODING 8217
SWIDTH 369 0
DWIDTH 4 0
BBX 3 6 1 3
BITMAP
E0
E0
E0
E0
60
40
ENDCHAR
STARTCHAR quotesinglbase
ENCODING 8218
SWIDTH 369 0
DWIDTH 4 0
BBX 3 6 1 3
BITMAP
E0
E0
E0
E0
60
40
ENDCHAR
STARTCHAR quotedblleft
ENCODING 8220
SWIDTH 687 0
DWIDTH 8 0
BBX 7 6 1 3
BITMAP
88
88
FA
FE
FE
EE
ENDCHAR
STARTCHAR quotedblright
ENCODING 8221
SWIDTH 677 0
DWIDTH 8 0
BBX 6 6 1 3
BITMAP
CC
FC
DC
FC
44
44
ENDCHAR
STARTCHAR quotedblbase
ENCODING 8222
SWIDTH 697 0
DWIDTH 8 0
BBX 7 6 1 -4
BITMAP
EE
EE
EE
62
66
44
ENDCHAR
STARTCHAR ellipsis
ENCODING 8230
SWIDTH 1462 0
DWIDTH 18 0
BBX 17 4 0 0
BITMAP
F1C380
70C380
70C380
810200
ENDCHAR
STARTCHAR guilsinglleft
ENCODING 8249
SWIDTH 459 0
DWIDTH 6 0
BBX 5 6 0 1
BITMAP
38
70
E0
60
70
38
ENDCHAR
STARTCHAR guilsinglright
ENCODING 8250
SWIDTH 432 0
DWIDTH 5 0
BBX 5 7 0 1
BITMAP
A0
60
30
38
38
70
E0
ENDCHAR
STARTCHAR fraction
ENCODING 8260
SWIDTH 371 0
DWIDTH 4 0
BBX 4 9 0 0
BITMAP
F0
70
70
60
60
60
20
20
20
ENDCHAR
STARTCHAR Euro
ENCODING 8364
SWIDTH 587 0
DWIDTH 7 0
BBX 7 12 0 -3
BITMAP
38
3C
7E
7C
7C
F0
F0
3C
3C
18
10
10
ENDCHAR
STARTCHAR trademark
ENCODING 8482
SWIDTH 785 0
DWIDTH 9 0
BBX 9 6 0 3
BITMAP
FD80
7780
7780
2780
2700
2480
ENDCHAR
STARTCHAR minus
ENCODING 8722
SWIDTH 478 0
DWIDTH 6 0
BBX 4 3 1 3
BITMAP
F0
F0
50
ENDCHAR
STARTCHAR commaaccent
ENCODING 63171
SWIDTH 360 0
DWIDTH 4 0
BBX 3 6 1 -2
BITMAP
E0
E0
E0
60
60
40
ENDCHAR
STARTCHAR .notdef
ENCODING -1
SWIDTH 365 0
DWIDTH 4 0
BBX 4 8 0 0
BITMAP
F0
90
90
90
90
90
90
F0
ENDCHAR
STARTCHAR .null
ENCODING -1
SWIDTH 0 0
DWIDTH 0 0
BBX 1 1 0 0
BITMAP
00
ENDCHAR
STARTCHAR nonmarkingreturn
ENCODING -1
SWIDTH 333 0
DWIDTH 4 0
BBX 1 1 0 0
BITMAP
00
ENDCHAR
ENDFONT
